<?xml version="1.0" encoding="utf-8"?>
<!-- Generator: Adobe Illustrator 19.1.0, SVG Export Plug-In . SVG Version: 6.00 Build 0)  -->
<svg version="1.1" xmlns="http://www.w3.org/2000/svg" xmlns:xlink="http://www.w3.org/1999/xlink" x="0px" y="0px"
	 viewBox="0 0 43 50" style="enable-background:new 0 0 43 50;" xml:space="preserve">
<style type="text/css">
	.st0{fill:#1B0C82;}
	.st1{fill:#3417FF;}
	.st2{fill:#A194FF;}
	.st3{fill:#FFFFFF;}
	.st4{display:none;}
	.st5{display:inline;}
	.st6{fill:#B3721B;}
	.st7{fill:#F29A25;}
	.st8{fill:#FFDAA8;}
	.st9{fill:#844A35;}
	.st10{fill:#F7561E;}
	.st11{fill:#F2A38B;}
</style>
<g id="DOC">
	<g>
		<path class="st0" d="M42,50H2.5c-0.8,0-1.4-0.6-1.4-1.4V2.5c0-0.8,0.6-1.4,1.4-1.4l31,0l9.9,9.8l0,37.7C43.4,49.4,42.8,50,42,50z"
			/>
		<path class="st1" d="M40.9,48.9H1.4c-0.8,0-1.4-0.6-1.4-1.4V1.4C0,0.6,0.6,0,1.4,0l31,0l9.9,9.8l0,37.7
			C42.3,48.3,41.7,48.9,40.9,48.9z"/>
		<polygon class="st2" points="42.3,9.9 32.3,9.9 32.3,0.1 		"/>
	</g>
	<g id="Label">
		<g>
			<path class="st3" d="M6.6,12.6c0.8-0.1,1.9-0.2,3.1-0.2c1.9,0,3.2,0.3,4.1,1.1c1,0.8,1.7,2,1.7,3.8c0,1.9-0.7,3.3-1.7,4.1
				c-1.1,0.9-2.7,1.3-4.7,1.3c-1.2,0-2-0.1-2.6-0.1V12.6z M8.9,20.8c0.2,0,0.5,0,0.8,0c2.1,0,3.4-1.1,3.4-3.5c0-2.1-1.2-3.2-3.2-3.2
				c-0.5,0-0.8,0-1,0.1V20.8z"/>
			<path class="st3" d="M26.3,17.4c0,3.3-2,5.3-5,5.3c-3,0-4.8-2.3-4.8-5.1c0-3,1.9-5.3,4.9-5.3C24.6,12.3,26.3,14.6,26.3,17.4z
				 M19,17.5c0,2,0.9,3.4,2.5,3.4c1.5,0,2.4-1.5,2.4-3.4c0-1.8-0.9-3.4-2.4-3.4C19.9,14.1,19,15.6,19,17.5z"/>
			<path class="st3" d="M35.2,22.3c-0.4,0.2-1.4,0.4-2.6,0.4c-3.5,0-5.3-2.2-5.3-5.1c0-3.4,2.5-5.4,5.5-5.4c1.2,0,2.1,0.2,2.5,0.4
				l-0.5,1.8c-0.5-0.2-1.1-0.4-1.9-0.4c-1.8,0-3.2,1.1-3.2,3.3c0,2,1.2,3.3,3.2,3.3c0.7,0,1.5-0.2,1.9-0.3L35.2,22.3z"/>
		</g>
	</g>
	<g id="Lines">
		<rect x="6" y="28" class="st3" width="31" height="3"/>
		<rect x="6" y="33" class="st3" width="31" height="3"/>
		<rect x="6" y="38" class="st3" width="31" height="3"/>
	</g>
</g>
<g id="IMG" class="st4">
	<g class="st5">
		<path class="st6" d="M42,50H2.5c-0.8,0-1.4-0.6-1.4-1.4V2.5c0-0.8,0.6-1.4,1.4-1.4l31,0l9.9,9.8l0,37.7C43.4,49.4,42.8,50,42,50z"
			/>
		<path class="st7" d="M40.9,48.9H1.4c-0.8,0-1.4-0.6-1.4-1.4V1.4C0,0.6,0.6,0,1.4,0l31,0l9.9,9.8l0,37.7
			C42.3,48.3,41.7,48.9,40.9,48.9z"/>
		<polygon class="st8" points="42.3,9.9 32.3,9.9 32.3,0.1 		"/>
	</g>
	<g id="Label_copy" class="st5">
		<g>
			<path class="st3" d="M10.4,12.4v10.1H8.1V12.4H10.4z"/>
			<path class="st3" d="M20.9,18.7c0-1.2-0.1-2.7-0.1-4.2h0c-0.3,1.3-0.7,2.7-1.1,3.9l-1.2,3.9h-1.8l-1.1-3.9
				c-0.3-1.2-0.7-2.6-0.9-3.9h0c-0.1,1.4-0.1,2.9-0.2,4.2l-0.2,3.8h-2.1l0.6-10.1h3l1,3.4c0.3,1.2,0.6,2.4,0.9,3.6h0
				c0.3-1.2,0.6-2.5,1-3.6l1.1-3.4h3l0.6,10.1H21L20.9,18.7z"/>
			<path class="st3" d="M33.5,22.1c-0.7,0.2-2,0.6-3.4,0.6c-1.8,0-3.2-0.5-4.1-1.4c-0.9-0.9-1.4-2.2-1.4-3.7c0-3.4,2.5-5.3,5.8-5.3
				c1.3,0,2.3,0.3,2.8,0.5l-0.5,1.8c-0.6-0.2-1.2-0.4-2.4-0.4c-1.9,0-3.3,1.1-3.3,3.3c0,2.1,1.3,3.3,3.2,3.3c0.5,0,0.9-0.1,1.1-0.2
				v-2.1h-1.6v-1.8h3.8V22.1z"/>
		</g>
	</g>
	<g id="Layer_5" class="st5">
		<polygon class="st3" points="34,34 30,40 22,35 16,38 9,29 9,44 34,44 		"/>
		<g>
			<path class="st3" d="M36,27v18H7V27H36 M37,26H6v20h31V26L37,26z"/>
		</g>
	</g>
</g>
<g id="VID" class="st4">
	<g class="st5">
		<path class="st9" d="M42,50H2.5c-0.8,0-1.4-0.6-1.4-1.4V2.5c0-0.8,0.6-1.4,1.4-1.4l31,0l9.9,9.8l0,37.7C43.4,49.4,42.8,50,42,50z"
			/>
		<path class="st10" d="M40.9,48.9H1.4c-0.8,0-1.4-0.6-1.4-1.4V1.4C0,0.6,0.6,0,1.4,0l31,0l9.9,9.8l0,37.7
			C42.3,48.3,41.7,48.9,40.9,48.9z"/>
		<polygon class="st11" points="42.3,9.9 32.3,9.9 32.3,0.1 		"/>
	</g>
	<g id="Label_copy_2" class="st5">
		<g>
			<path class="st3" d="M4.2,22.6l-3-9.4h2.3l1.1,4c0.3,1.1,0.6,2.2,0.8,3.4h0c0.2-1.1,0.5-2.3,0.9-3.3l1.2-4h2.3l-3.2,9.4H4.2z"/>
			<path class="st3" d="M13,13.1v9.4h-2.1v-9.4H13z"/>
			<path class="st3" d="M14.8,13.2c0.8-0.1,1.8-0.2,2.9-0.2c1.8,0,3,0.3,3.9,1c1,0.7,1.6,1.9,1.6,3.6c0,1.8-0.7,3.1-1.6,3.8
				c-1,0.8-2.5,1.2-4.4,1.2c-1.1,0-1.9-0.1-2.4-0.1V13.2z M17,20.9c0.2,0,0.5,0,0.7,0c1.9,0,3.2-1.1,3.2-3.3c0-2-1.1-3-3-3
				c-0.5,0-0.8,0-1,0.1V20.9z"/>
			<path class="st3" d="M30.2,18.6h-3.5v2.2h3.9v1.8h-6v-9.4h5.8v1.8h-3.7v2h3.5V18.6z"/>
			<path class="st3" d="M40.7,17.7c0,3.1-1.9,5-4.6,5c-2.8,0-4.4-2.1-4.4-4.8c0-2.8,1.8-4.9,4.6-4.9C39.1,13,40.7,15.1,40.7,17.7z
				 M33.9,17.9c0,1.8,0.9,3.2,2.3,3.2c1.4,0,2.3-1.4,2.3-3.2c0-1.7-0.8-3.2-2.3-3.2C34.7,14.7,33.9,16,33.9,17.9z"/>
		</g>
	</g>
	<g id="Layer_5_copy" class="st5">
		<path class="st3" d="M33,31v-1c0-1.1-0.9-2-2-2H13c-0.9,0-1.6,0.6-1.9,1.4L9,28H6v12h3l2-1.3V40c0,1.1,0.9,2,2,2h18
			c1.1,0,2-0.9,2-2v-6l4,2v-8L33,31z"/>
	</g>
</g>
</svg>
