<?xml version="1.0" encoding="utf-8"?>
<!-- Generator: Adobe Illustrator 19.1.0, SVG Export Plug-In . SVG Version: 6.00 Build 0)  -->
<svg version="1.1" xmlns="http://www.w3.org/2000/svg" xmlns:xlink="http://www.w3.org/1999/xlink" x="0px" y="0px"
	 viewBox="0 0 43 50" style="enable-background:new 0 0 43 50;" xml:space="preserve">
<style type="text/css">
	.st0{display:none;}
	.st1{display:inline;}
	.st2{fill:#1B0C82;}
	.st3{fill:#3417FF;}
	.st4{fill:#A194FF;}
	.st5{fill:#FFFFFF;}
	.st6{font-family:'MyriadPro-Bold';}
	.st7{font-size:15px;}
	.st8{fill:#B3721B;}
	.st9{fill:#F29A25;}
	.st10{fill:#FFDAA8;}
	.st11{fill:#844A35;}
	.st12{fill:#F7561E;}
	.st13{fill:#F2A38B;}
</style>
<g id="DOC" class="st0">
	<g class="st1">
		<path class="st2" d="M42,50H2.5c-0.8,0-1.4-0.6-1.4-1.4V2.5c0-0.8,0.6-1.4,1.4-1.4l31,0l9.9,9.8l0,37.7C43.4,49.4,42.8,50,42,50z"
			/>
		<path class="st3" d="M40.9,48.9H1.4c-0.8,0-1.4-0.6-1.4-1.4V1.4C0,0.6,0.6,0,1.4,0l31,0l9.9,9.8l0,37.7
			C42.3,48.3,41.7,48.9,40.9,48.9z"/>
		<polygon class="st4" points="42.3,9.9 32.3,9.9 32.3,0.1 		"/>
	</g>
	<g id="Label" class="st1">
		<text transform="matrix(1 0 0 1 5.6074 22.5552)" class="st5 st6 st7">DOC</text>
	</g>
	<g id="Lines" class="st1">
		<rect x="6" y="28" class="st5" width="31" height="3"/>
		<rect x="6" y="33" class="st5" width="31" height="3"/>
		<rect x="6" y="38" class="st5" width="31" height="3"/>
	</g>
</g>
<g id="IMG" class="st0">
	<g class="st1">
		<path class="st8" d="M42,50H2.5c-0.8,0-1.4-0.6-1.4-1.4V2.5c0-0.8,0.6-1.4,1.4-1.4l31,0l9.9,9.8l0,37.7C43.4,49.4,42.8,50,42,50z"
			/>
		<path class="st9" d="M40.9,48.9H1.4c-0.8,0-1.4-0.6-1.4-1.4V1.4C0,0.6,0.6,0,1.4,0l31,0l9.9,9.8l0,37.7
			C42.3,48.3,41.7,48.9,40.9,48.9z"/>
		<polygon class="st10" points="42.3,9.9 32.3,9.9 32.3,0.1 		"/>
	</g>
	<g id="Label_copy" class="st1">
		<text transform="matrix(1 0 0 1 7.0703 22.5552)" class="st5 st6 st7">IMG</text>
	</g>
	<g id="Layer_5" class="st1">
		<polygon class="st5" points="34,34 30,40 22,35 16,38 9,29 9,44 34,44 		"/>
		<g>
			<path class="st5" d="M36,27v18H7V27H36 M37,26H6v20h31V26L37,26z"/>
		</g>
	</g>
</g>
<g id="VID">
	<g>
		<path class="st11" d="M42,50H2.5c-0.8,0-1.4-0.6-1.4-1.4V2.5c0-0.8,0.6-1.4,1.4-1.4l31,0l9.9,9.8l0,37.7C43.4,49.4,42.8,50,42,50z
			"/>
		<path class="st12" d="M40.9,48.9H1.4c-0.8,0-1.4-0.6-1.4-1.4V1.4C0,0.6,0.6,0,1.4,0l31,0l9.9,9.8l0,37.7
			C42.3,48.3,41.7,48.9,40.9,48.9z"/>
		<polygon class="st13" points="42.3,9.9 32.3,9.9 32.3,0.1 		"/>
	</g>
	<g id="Label_copy_2">
		<g>
			<path class="st5" d="M4.2,22.6l-3-9.4h2.3l1.1,4c0.3,1.1,0.6,2.2,0.8,3.4h0c0.2-1.1,0.5-2.3,0.9-3.3l1.2-4h2.3l-3.2,9.4H4.2z"/>
			<path class="st5" d="M13,13.1v9.4h-2.1v-9.4H13z"/>
			<path class="st5" d="M14.8,13.2c0.8-0.1,1.8-0.2,2.9-0.2c1.8,0,3,0.3,3.9,1c1,0.7,1.6,1.9,1.6,3.6c0,1.8-0.7,3.1-1.6,3.8
				c-1,0.8-2.5,1.2-4.4,1.2c-1.1,0-1.9-0.1-2.4-0.1V13.2z M17,20.9c0.2,0,0.5,0,0.7,0c1.9,0,3.2-1.1,3.2-3.3c0-2-1.1-3-3-3
				c-0.5,0-0.8,0-1,0.1V20.9z"/>
			<path class="st5" d="M30.2,18.6h-3.5v2.2h3.9v1.8h-6v-9.4h5.8v1.8h-3.7v2h3.5V18.6z"/>
			<path class="st5" d="M40.7,17.7c0,3.1-1.9,5-4.6,5c-2.8,0-4.4-2.1-4.4-4.8c0-2.8,1.8-4.9,4.6-4.9C39.1,13,40.7,15.1,40.7,17.7z
				 M33.9,17.9c0,1.8,0.9,3.2,2.3,3.2c1.4,0,2.3-1.4,2.3-3.2c0-1.7-0.8-3.2-2.3-3.2C34.7,14.7,33.9,16,33.9,17.9z"/>
		</g>
	</g>
	<g id="Layer_5_copy">
		<path class="st5" d="M33,31v-1c0-1.1-0.9-2-2-2H13c-0.9,0-1.6,0.6-1.9,1.4L9,28H6v12h3l2-1.3V40c0,1.1,0.9,2,2,2h18
			c1.1,0,2-0.9,2-2v-6l4,2v-8L33,31z"/>
	</g>
</g>
</svg>
